<svg xmlns="http://www.w3.org/2000/svg" xmlns:xlink="http://www.w3.org/1999/xlink" version="1.1" id="Your_Icon" x="0px" y="0px" width="100px" height="100px" viewBox="0 0 100 100" enable-background="new 0 0 100 100" xml:space="preserve">
<circle cx="42.504" cy="84.322" r="6.662"/>
<circle cx="70.326" cy="84.322" r="6.662"/>
<g>
	<path d="M5.833,24c6.111,0,12.222,0,18.333,0c-1.125-0.857-2.25-1.713-3.375-2.57c4.612,16.111,9.225,32.222,13.837,48.333   c0.429,1.499,1.806,2.57,3.375,2.57c12.33,0,24.659,0,36.989,0c1.624,0,2.874-1.082,3.375-2.57   c3.669-10.889,7.338-21.778,11.007-32.667c0.734-2.179-1.197-4.43-3.375-4.43c-19.167,0-38.333,0-57.5,0c-4.514,0-4.514,7,0,7   c19.167,0,38.333,0,57.5,0c-1.125-1.477-2.25-2.954-3.375-4.43c-3.669,10.889-7.338,21.778-11.007,32.667   c1.125-0.857,2.25-1.713,3.375-2.57c-12.33,0-24.659,0-36.989,0c1.125,0.857,2.25,1.713,3.375,2.57   c-4.612-16.111-9.225-32.222-13.837-48.333C27.112,18.07,25.736,17,24.167,17c-6.111,0-12.222,0-18.333,0   C1.319,17,1.319,24,5.833,24L5.833,24z"/>
</g>
</svg>