<svg xmlns="http://www.w3.org/2000/svg" xmlns:xlink="http://www.w3.org/1999/xlink" version="1.1" id="Layer_1" x="0px" y="0px" width="100px" height="100px" viewBox="0 0 100 100" enable-background="new 0 0 100 100" xml:space="preserve">
<path d="M98.3,90.671L72.163,64.393c0.737-1.001,1.253-1.704,1.613-2.198l0.044-0.06c0.294-0.387,0.578-0.776,0.854-1.173  l0.025-0.034h-0.001c10.239-14.716,7.972-35.529-5.57-49.07C61.561,4.29,51.5,0.123,40.8,0.123S20.041,4.29,12.473,11.857  C4.906,19.424,0.738,29.485,0.738,40.187c0,10.701,4.167,20.763,11.735,28.329c7.546,7.547,17.582,11.703,28.258,11.703c0,0,0,0,0,0  c6.4,0,12.777-1.549,18.482-4.499c0.641-0.361,2.542-1.465,4.068-2.699l26.545,25.936c0.159,0.159,1.016,0.954,2.262,0.954  c0.546,0,1.362-0.161,2.151-0.928l1.326-1.28c1.013-0.975,2.078-2.001,2.841-2.763C99.889,93.456,99.17,91.59,98.3,90.671z   M40.615,10.904c16.128,0,29.248,13.121,29.248,29.249c0,16.126-13.12,29.248-29.248,29.248S11.366,56.279,11.366,40.153  C11.366,24.025,24.487,10.904,40.615,10.904z"/>
</svg>